<svg width="24" height="24" viewBox="0 0 24 24" fill="none" xmlns="http://www.w3.org/2000/svg">
<path d="M21.255 7.134L20.761 6.277C20.388 5.629 20.201 5.305 19.884 5.177C19.566 5.047 19.207 5.149 18.489 5.353L17.269 5.696C16.81 5.802 16.329 5.742 15.91 5.527L15.573 5.333C15.2138 5.10266 14.9377 4.76347 14.785 4.365L14.451 3.368C14.231 2.708 14.121 2.378 13.861 2.188C13.598 2 13.25 2 12.556 2H11.442C10.747 2 10.4 2 10.139 2.189C9.87701 2.378 9.76801 2.708 9.54801 3.368L9.21401 4.365C9.06133 4.76347 8.78521 5.10266 8.42601 5.333L8.08901 5.527C7.67013 5.74184 7.1889 5.80204 6.73001 5.697L5.51001 5.353C4.79201 5.149 4.43301 5.047 4.11501 5.176C3.79801 5.306 3.61101 5.629 3.23801 6.277L2.74401 7.134C2.39401 7.741 2.21901 8.044 2.25401 8.368C2.28701 8.691 2.52101 8.951 2.99001 9.472L4.02001 10.625C4.27301 10.944 4.45201 11.5 4.45201 12C4.45201 12.5 4.27201 13.056 4.02101 13.375L2.99001 14.528C2.52101 15.048 2.28701 15.309 2.25301 15.632C2.21901 15.955 2.39401 16.259 2.74401 16.866L3.23801 17.723C3.61101 18.371 3.79801 18.695 4.11501 18.823C4.43301 18.953 4.79201 18.851 5.51001 18.647L6.73001 18.304C7.19001 18.198 7.67001 18.258 8.09001 18.473L8.42601 18.667C8.78501 18.897 9.06101 19.237 9.21401 19.635L9.54801 20.632C9.76801 21.292 9.87801 21.622 10.138 21.812C10.4 22 10.748 22 11.442 22H12.556C13.251 22 13.598 22 13.859 21.811C14.121 21.622 14.231 21.293 14.45 20.633L14.784 19.635C14.937 19.236 15.213 18.897 15.572 18.667L15.909 18.473C16.3279 18.2582 16.8091 18.198 17.268 18.303L18.488 18.647C19.206 18.851 19.565 18.953 19.883 18.824C20.2 18.694 20.387 18.371 20.76 17.723L21.254 16.866C21.604 16.259 21.779 15.956 21.744 15.632C21.711 15.309 21.477 15.049 21.008 14.528L19.978 13.375C19.725 13.055 19.546 12.5 19.546 12C19.546 11.5 19.726 10.944 19.977 10.625L21.008 9.472C21.477 8.952 21.711 8.691 21.745 8.368C21.779 8.045 21.605 7.741 21.255 7.134Z" stroke="#E46A81" stroke-width="1.5" stroke-linecap="round"/>
<path d="M14.062 11.5L14.562 11C15.003 10.559 15.224 10.338 15.513 10.43C15.803 10.521 15.849 10.783 15.94 11.307C15.98 11.5323 16 11.7633 16 12C16.0003 12.6551 15.8397 13.3003 15.5323 13.8789C15.2249 14.4574 14.78 14.9516 14.2369 15.318C13.6938 15.6843 13.0689 15.9117 12.4174 15.98C11.7658 16.0484 11.1074 15.9556 10.5 15.71M10 12.535L9.45603 13.079C9.02203 13.513 8.80403 13.731 8.51803 13.644C8.23103 13.557 8.18003 13.3 8.07803 12.787C7.93574 12.0789 7.98782 11.3455 8.22874 10.6646C8.46966 9.98374 8.89043 9.3808 9.44639 8.91979C10.0024 8.45878 10.6728 8.15689 11.3865 8.04618C12.1002 7.93547 12.8305 8.02005 13.5 8.29097" stroke="#E46A81" stroke-width="1.5" stroke-linecap="round" stroke-linejoin="round"/>
</svg>
